# xmcd CD database file
#
# Track frame offsets:
#	150
#	19512
#	35730
#	53992
#	72310
#	91585
#	108802
#	125177
#	145367
#
# Disc length: 2385 seconds
#
# Revision: 0
# Processed by: cddbd v1.5.1PL2 Copyright (c) Steve Scherf et al.
# Submitted via: CDex 1.51
#
DISCID=7a094f09
DTITLE=roy roberts - introducing roy roberts
DYEAR=1993
DGENRE=Blues
TTITLE0=Me And My Baby
TTITLE1=What Should I Do
TTITLE2=Comin' Thru The Back Door
TTITLE3=Lovin' You Is So Easy
TTITLE4=Why You Didn't Come Home Last Night
TTITLE5=Nobody But You
TTITLE6=Baby What You Want Me To Do
TTITLE7=She's So Fine
TTITLE8=Jammin' With My Friends
EXTD=YEAR: 1993
EXTT0=
EXTT1=
EXTT2=
EXTT3=
EXTT4=
EXTT5=
EXTT6=
EXTT7=
EXTT8=
PLAYORDER=
